<svg xmlns="http://www.w3.org/2000/svg" viewBox="0 0 759.66 124.21"><defs><style>.a{fill:#fff;}</style></defs><title>Jabil-Logo-white</title><path class="a" d="M100.24,368c12,0,20.16-2.05,24.42-6.17s6.42-11.82,6.42-23.2V243.87h-29V344.7H45.4V307.39l-29.15,5.53v25.75c0,11.38,2.14,19.1,6.36,23.2S35,368,47.05,368h53.19Z" transform="translate(-16.25 -243.84)"/><rect class="a" x="545.24" width="28.94" height="124.21"/><polygon class="a" points="637.54 0.03 637.54 124.21 759.66 124.21 759.66 100.86 666.48 100.86 666.48 0.03 637.54 0.03"/><path class="a" d="M500,311.58q-5.82-6.24-16.55-7.64c6.88-.85,12.18-3.07,15.84-6.64s5.49-8.29,5.49-14.2V268q0-12.59-6.58-18.36t-21.34-5.76H370.53v57l-78.47,0-32.63-57H231.59L161.39,368h28.76L201,347.86l0.05-.09,0,0.09,75.75-19.63L298.15,368h32.41l-26.81-46.82,66.78-17.31V368h98.56c12.34,0,21.52-2,27.62-6s9.06-10.11,9.06-18.33V327.82Q505.78,317.81,500,311.58Zm-273.39-10.8L244.49,268,261.9,300.8Zm172.37-36.66h65.81q7.53,0,10.36,2.07C477,267.54,478,269.84,478,273v11.7c0,3.29-1,5.6-2.91,6.89s-5.34,2-10.36,2H398.94V264.12Zm79.92,70.41c0,4.18-1,7.07-2.92,8.72s-5.65,2.46-11.19,2.46H398.94V314h65.81c5.53,0,9.27.82,11.19,2.43s2.92,4.5,2.92,8.65v9.41Z" transform="translate(-16.25 -243.84)"/></svg>