<?xml version="1.0" encoding="utf-8"?>
<!-- Generator: Adobe Illustrator 16.0.3, SVG Export Plug-In . SVG Version: 6.00 Build 0)  -->
<!DOCTYPE svg PUBLIC "-//W3C//DTD SVG 1.1//EN" "http://www.w3.org/Graphics/SVG/1.1/DTD/svg11.dtd">
<svg version="1.1" id="Vrstva_1" xmlns="http://www.w3.org/2000/svg" xmlns:xlink="http://www.w3.org/1999/xlink" x="0px" y="0px"
	 width="186.386px" height="31.044px" viewBox="0 0 186.386 31.044" enable-background="new 0 0 186.386 31.044"
	 xml:space="preserve">
<g>
	<g>
		<path fill="#FFFFFF" d="M15.552,0c-3.942,0-7.54,1.469-10.276,3.891C2.293,6.526,0.33,10.292,0.063,14.518
			C0.021,14.848,0,15.182,0,15.521c0,0.34,0.021,0.676,0.063,1.005c0.495,3.984,3.892,7.07,8.01,7.07
			c3.537,0,6.543-2.279,7.634-5.446l-6.681-0.077l6.604-5.394l3.124-2.55l4.637-3.786l0.002,18.545l-4.18-5
			c-1.744,4.443-6.076,7.594-11.141,7.594c-0.964,0-1.898-0.113-2.797-0.328c2.736,2.42,6.334,3.889,10.276,3.889
			c8.572,0,15.523-6.951,15.523-15.523C31.075,6.949,24.124,0,15.552,0z"/>
	</g>
	<g>
		<path fill="#FFFFFF" d="M43.735,7.432H35.91V3.704h19.982v3.728h-7.825v20.117h-4.332V7.432z"/>
		<path fill="#FFFFFF" d="M60.491,10.018c4.938,0,7.591,3.594,7.591,8.127c0,0.504-0.101,1.646-0.101,1.646H56.159
			c0.269,2.989,2.586,4.534,5.139,4.534c2.754,0,4.937-1.881,4.937-1.881L67.88,25.5c0,0-2.619,2.453-6.885,2.453
			c-5.676,0-9.202-4.098-9.202-8.968C51.793,13.712,55.387,10.018,60.491,10.018z M63.783,16.869
			c-0.067-2.317-1.512-3.56-3.393-3.56c-2.183,0-3.694,1.343-4.097,3.56H63.783z"/>
		<path fill="#FFFFFF" d="M79.633,16.802h0.57v-0.235c0-2.25-1.41-3.023-3.291-3.023c-2.452,0-4.702,1.646-4.702,1.646l-1.612-3.056
			c0,0,2.653-2.116,6.718-2.116c4.5,0,7.119,2.485,7.119,6.818v10.713h-3.929v-1.41c0-0.672,0.066-1.209,0.066-1.209h-0.066
			c0.033,0-1.311,3.023-5.206,3.023c-3.056,0-5.81-1.915-5.81-5.341C69.49,17.171,76.845,16.802,79.633,16.802z M76.375,24.626
			c2.25,0,3.862-2.418,3.862-4.5v-0.402h-0.739c-2.183,0-5.709,0.302-5.709,2.686C73.789,23.552,74.628,24.626,76.375,24.626z"/>
		<path fill="#FFFFFF" d="M86.852,10.421h4.098v1.981c0,0.638-0.067,1.175-0.067,1.175h0.067c0.84-1.679,2.889-3.56,5.575-3.56
			c2.62,0,4.299,1.209,5.004,3.526h0.066c0.941-1.847,3.158-3.526,5.844-3.526c3.561,0,5.609,2.015,5.609,6.516v11.015h-4.266
			V17.339c0-1.948-0.369-3.425-2.352-3.425c-2.182,0-3.627,1.746-4.131,3.896c-0.168,0.672-0.201,1.411-0.201,2.217v7.522h-4.266
			V17.339c0-1.847-0.301-3.425-2.317-3.425c-2.217,0-3.66,1.746-4.198,3.929c-0.168,0.638-0.201,1.411-0.201,2.183v7.522h-4.266
			V10.421z"/>
		<path fill="#FFFFFF" d="M127.519,3.301c5.844,0,8.867,3.022,8.867,3.022l-2.15,3.224c0,0-2.551-2.284-6.346-2.284
			c-5.34,0-8.195,3.694-8.195,8.195c0,5.172,3.525,8.53,7.992,8.53c3.594,0,5.979-2.485,5.979-2.485v-2.787h-3.66v-3.728h7.557
			v12.56h-3.695v-1.141c0-0.504,0.035-1.008,0.035-1.008h-0.068c0,0-2.484,2.553-6.918,2.553c-6.281,0-11.688-4.871-11.688-12.36
			C115.228,8.674,120.433,3.301,127.519,3.301z"/>
		<path fill="#FFFFFF" d="M140.111,10.421h4.266v10.143c0,2.082,0.537,3.492,2.652,3.492c3.09,0,4.803-2.721,4.803-5.777v-7.858
			h4.266v17.127H152v-1.947c0-0.672,0.068-1.209,0.068-1.209H152c-0.84,1.779-3.021,3.561-5.943,3.561
			c-3.662,0-5.945-1.848-5.945-6.516V10.421z"/>
		<path fill="#FFFFFF" d="M158.781,10.421h4.098v2.955c0,0.638-0.066,1.209-0.066,1.209h0.066c0.773-2.452,2.822-4.399,5.441-4.399
			c0.402,0,0.771,0.067,0.771,0.067v4.198c0,0-0.436-0.067-1.006-0.067c-1.814,0-3.863,1.041-4.67,3.593
			c-0.268,0.84-0.369,1.78-0.369,2.788v6.783h-4.266V10.421z"/>
		<path fill="#FFFFFF" d="M170.4,10.421h4.266v10.143c0,2.082,0.537,3.492,2.652,3.492c3.09,0,4.803-2.721,4.803-5.777v-7.858h4.266
			v17.127h-4.098v-1.947c0-0.672,0.068-1.209,0.068-1.209h-0.068c-0.84,1.779-3.021,3.561-5.943,3.561
			c-3.662,0-5.945-1.848-5.945-6.516V10.421z"/>
	</g>
</g>
</svg>
